<svg width="64" height="64" viewBox="0 0 64 64" fill="none" xmlns="http://www.w3.org/2000/svg">
<rect width="64" height="64" rx="32" fill="#FFE7DB"/>
<path d="M22.7972 21.3242V25.9161C22.7972 26.6334 23.3787 27.2149 24.096 27.2149H28.6879C29.4052 27.2149 29.9867 26.6334 29.9867 25.9161C29.9867 25.1988 29.4052 24.6173 28.6879 24.6173L27.6204 24.616C31.1122 22.5273 35.7035 22.987 38.7114 25.9949C42.2619 29.5454 42.2619 35.3018 38.7114 38.8523C35.1609 42.4028 29.4045 42.4028 25.854 38.8523C23.693 36.6914 22.7885 33.6404 23.3561 30.6942C23.4918 29.9898 23.0308 29.3088 22.3264 29.1731C21.6221 29.0374 20.9411 29.4984 20.8054 30.2028C20.0764 33.9867 21.2402 37.9121 24.0172 40.6891C28.5821 45.254 35.9833 45.254 40.5482 40.6891C45.1131 36.1242 45.1131 28.723 40.5482 24.1581C36.4184 20.0283 29.9672 19.6347 25.3948 22.9773L25.3948 21.3242C25.3948 20.6069 24.8133 20.0254 24.096 20.0254C23.3787 20.0254 22.7972 20.6069 22.7972 21.3242Z" fill="#EA5A16"/>
</svg>
